#!OML:ASF E:\motion texture\Top Level 1\Subject 1\Session 1\male.ASF
:FULLY-SPECIFIED
:DEGREES
378
root -14.6246 18.2392 2.7605 532.407 -75.1788 -526.813
lowerback -0.816787 -5.75104 1.31831
upperback -8.6102 -8.0185 0.821762
thorax -8.65754 -4.17083 0.703014
lowerneck -12.3159 -10.93 -16.3949
upperneck -6.51953 -12.7452 8.76287
head 1.51051 -6.13306 4.4529
rclavicle -4.72114e-015 1.35174e-014
rhumerus 39.5771 -38.8879 -4.83982
rradius 112.06
rwrist 4.15886
rhand -29.0547 -9.36063
rfingers 7.12502
rthumb -2.40453 -39.3268
lclavicle -4.72114e-015 1.35174e-014
lhumerus 55.2464 17.5529 35.2199
lradius 105.673
lwrist -14.4699
lhand -36.0975 10.8172
lfingers 7.12502
lthumb -9.20392 40.5963
rfemur -22.4867 0.641334 29.3941
rtibia 23.523
rfoot -3.69245 -1.68246
rtoes 20.5999
lfemur 6.6008 0.989666 -16.0275
ltibia 30.6133
lfoot 0.469644 -0.61125
ltoes -30.8818
379
root -14.7566 18.2439 2.72255 531.993 -74.8333 -526.418
lowerback -0.835231 -5.7979 1.46684
upperback -8.62649 -8.07295 0.92215
thorax -8.67172 -4.20551 0.731003
lowerneck -12.2432 -11.1081 -16.4644
upperneck -6.86261 -12.9954 9.07537
head 1.45368 -6.25405 4.54646
rclavicle 9.19379e-015 1.09332e-014
rhumerus 39.5738 -39.0074 -5.03759
rradius 112.271
rwrist 4.3264
rhand -29.2095 -9.38674
rfingers 7.12502
rthumb -2.55403 -39.3512
lclavicle 9.19379e-015 1.09332e-014
lhumerus 55.095 17.7437 35.1257
lradius 105.944
lwrist -14.475
lhand -36.1801 10.8511
lfingers 7.12502
lthumb -9.28354 40.6267
rfemur -21.9681 0.596557 29.6751
rtibia 23.6018
rfoot -4.17268 -1.21644
rtoes 20.5003
lfemur 6.37746 1.32865 -15.6516
ltibia 31.5274
lfoot 1.88054 -1.01287
ltoes -29.9877
380
root -14.8858 18.247 2.68447 531.583 -74.5147 -526.026
lowerback -0.839125 -5.84028 1.60531
upperback -8.63668 -8.1213 1.01562
thorax -8.68731 -4.23634 0.758079
lowerneck -12.0968 -11.2613 -16.5553
upperneck -7.21658 -13.2203 9.36922
head 1.38079 -6.36374 4.64392
rclavicle 8.30423e-014 1.19271e-015
rhumerus 39.5261 -39.1231 -5.17107
rradius 112.439
rwrist 4.50083
rhand -29.3711 -9.4093
rfingers 7.12502
rthumb -2.71011 -39.3718
lclavicle 8.30423e-014 1.19271e-015
lhumerus 54.9855 17.9251 35.0959
lradius 106.171
lwrist -14.4959
lhand -36.2144 10.8547
lfingers 7.12502
lthumb -9.3167 40.6288
rfemur -21.4447 0.484727 29.9534
rtibia 23.6476
rfoot -4.65124 -0.769764
rtoes 20.361
lfemur 6.11289 1.68612 -15.2525
ltibia 32.4867
lfoot 3.32102 -1.44737
ltoes -28.9724
381
root -15.012 18.2488 2.64666 531.159 -74.2258 -525.62
lowerback -0.82044 -5.87793 1.73983
upperback -8.64462 -8.16285 1.1037
thorax -8.71389 -4.2633 0.783901
lowerneck -11.9016 -11.3769 -16.6469
upperneck -7.55005 -13.4016 9.60062
head 1.2976 -6.45337 4.72912
rclavicle -2.17421e-014 -1.23246e-014
rhumerus 39.4375 -39.2291 -5.2377
rradius 112.565
rwrist 4.64129
rhand -29.4913 -9.35063
rfingers 7.12502
rthumb -2.82618 -39.3116
lclavicle -2.17421e-014 -1.23246e-014
lhumerus 54.9169 18.0871 35.1211
lradius 106.335
lwrist -14.5411
lhand -36.2432 10.8198
lfingers 7.12502
lthumb -9.34449 40.5927
rfemur -20.9185 0.320377 30.2268
rtibia 23.6683
rfoot -5.10786 -0.341189
rtoes 20.269
lfemur 5.80665 2.05177 -14.831
ltibia 33.4908
lfoot 4.78681 -1.88888
ltoes -27.829
382
root -15.1351 18.2496 2.60929 530.695 -73.9559 -525.171
lowerback -0.785625 -5.90684 1.88694
upperback -8.64939 -8.19166 1.18608
thorax -8.74909 -4.28475 0.798108
lowerneck -11.6993 -11.4831 -16.7584
upperneck -7.86392 -13.5681 9.83893
head 1.22013 -6.53559 4.82054
rclavicle 3.05383e-014 5.86415e-015
rhumerus 39.3179 -39.319 -5.24604
rradius 112.65
rwrist 4.72708
rhand -29.6015 -9.31853
rfingers 7.12502
rthumb -2.93266 -39.2781
lclavicle 3.05383e-014 5.86415e-015
lhumerus 54.8846 18.2101 35.1876
lradius 106.437
lwrist -14.599
lhand -36.218 10.8055
lfingers 7.12502
lthumb -9.32014 40.5795
rfemur -20.3992 0.134333 30.5063
rtibia 23.6727
rfoot -5.52562 0.0659716
rtoes 20.2371
lfemur 5.45442 2.42733 -14.377
ltibia 34.537
lfoot 6.28562 -2.30402
ltoes -26.6017
383
root -15.2553 18.2497 2.57288 530.205 -73.6989 -524.691
lowerback -0.733611 -5.92455 2.04745
upperback -8.64837 -8.20407 1.26143
thorax -8.7909 -4.29895 0.798506
lowerneck -11.5208 -11.5765 -16.8866
upperneck -8.13517 -13.71 10.096
head 1.15957 -6.60515 4.91972
rclavicle -9.33542e-014 -1.05356e-014
rhumerus 39.1583 -39.3996 -5.18811
rradius 112.706
rwrist 4.7529
rhand -29.7015 -9.2995
rfingers 7.12502
rthumb -3.02921 -39.2577
lclavicle -9.33542e-014 -1.05356e-014
lhumerus 54.9144 18.3258 35.2828
lradius 106.458
lwrist -14.6417
lhand -36.1953 10.8057
lfingers 7.12502
lthumb -9.29821 40.5806
rfemur -19.894 -0.0588516 30.7869
rtibia 23.676
rfoot -5.89831 0.459347
rtoes 20.2888
lfemur 5.05676 2.81236 -13.9005
ltibia 35.6221
lfoot 7.83009 -2.67203
ltoes -25.2952
384
root -15.3724 18.2492 2.53767 529.686 -73.4526 -524.179
lowerback -0.664165 -5.93148 2.22661
upperback -8.64468 -8.20067 1.32853
thorax -8.8439 -4.30671 0.781394
lowerneck -11.3675 -11.6554 -17.0137
upperneck -8.3559 -13.8273 10.3471
head 1.11513 -6.66237 5.01639
rclavicle -3.52594e-014 1.26228e-014
rhumerus 38.9755 -39.4642 -5.08672
rradius 112.733
rwrist 4.72887
rhand -29.7996 -9.30718
rfingers 7.12502
rthumb -3.12391 -39.264
lclavicle -3.52594e-014 1.26228e-014
lhumerus 54.9768 18.3983 35.4057
lradius 106.425
lwrist -14.6756
lhand -36.1641 10.8177
lfingers 7.12502
lthumb -9.26819 40.5939
rfemur -19.4085 -0.244319 31.0703
rtibia 23.686
rfoot -6.22591 0.829457
rtoes 20.4524
lfemur 4.61265 3.2025 -13.4029
ltibia 36.743
lfoot 9.42363 -2.96849
ltoes -23.8166
385
root -15.4867 18.2488 2.50395 529.145 -73.216 -523.641
lowerback -0.569261 -5.92702 2.4261
upperback -8.6432 -8.18042 1.38812
thorax -8.9183 -4.30768 0.747969
lowerneck -11.2435 -11.7229 -17.1212
upperneck -8.5148 -13.9257 10.5568
head 1.08692 -6.71045 5.09606
rclavicle 1.21681e-013 2.88238e-015
rhumerus 38.773 -39.4991 -4.94498
rradius 112.733
rwrist 4.7001
rhand -29.9374 -9.38578
rfingers 7.12502
rthumb -3.25703 -39.3406
lclavicle 1.21681e-013 2.88238e-015
lhumerus 55.0773 18.4459 35.5522
lradius 106.339
lwrist -14.648
lhand -36.1235 10.8072
lfingers 7.12502
lthumb -9.22901 40.5853
rfemur -18.9447 -0.429918 31.3559
rtibia 23.7146
rfoot -6.52061 1.17779
rtoes 20.7005
lfemur 4.12531 3.59737 -12.8903
ltibia 37.8995
lfoot 11.052 -3.1982
ltoes -22.0643
386
root -15.5981 18.2483 2.47171 528.611 -72.9901 -523.11
lowerback -0.459471 -5.91531 2.63547
upperback -8.63617 -8.14901 1.43805
thorax -8.99812 -4.30396 0.69979
lowerneck -11.1472 -11.7764 -17.2078
upperneck -8.63511 -14.0032 10.7329
head 1.06782 -6.74847 5.16206
rclavicle 6.28657e-014 1.73937e-014
rhumerus 38.5612 -39.5193 -4.78271
rradius 112.713
rwrist 4.6807
rhand -30.0964 -9.49852
rfingers 7.12502
rthumb -3.4106 -39.451
lclavicle 6.28657e-014 1.73937e-014
lhumerus 55.2027 18.4663 35.782
lradius 106.306
lwrist -14.5721
lhand -36.0067 10.777
lfingers 7.12502
lthumb -9.11627 40.56
rfemur -18.5019 -0.616211 31.6345
rtibia 23.7608
rfoot -6.78977 1.49953
rtoes 20.9877
lfemur 3.59739 3.99454 -12.375
ltibia 39.0885
lfoot 12.704 -3.36346
ltoes -19.7419
387
root -15.7061 18.248 2.44142 528.096 -72.7759 -522.592
lowerback -0.333334 -5.89604 2.85221
upperback -8.63099 -8.10631 1.4808
thorax -9.09159 -4.29545 0.64154
lowerneck -11.0704 -11.8253 -17.2299
upperneck -8.71087 -14.0794 10.7933
head 1.0502 -6.78734 5.18205
rclavicle -2.02015e-014 -4.02539e-014
rhumerus 38.3522 -39.5189 -4.60826
rradius 112.67
rwrist 4.70207
rhand -30.3472 -9.75437
rfingers 7.12502
rthumb -3.65273 -39.7028
lclavicle -2.02015e-014 -4.02539e-014
lhumerus 55.3369 18.4719 36.0218
lradius 106.251
lwrist -14.4422
lhand -35.9066 10.7133
lfingers 7.12502
lthumb -9.01968 40.5005
rfemur -18.0872 -0.80878 31.9025
rtibia 23.8238
rfoot -7.04138 1.79507
rtoes 21.2551
lfemur 3.01809 4.39705 -11.8648
ltibia 40.3208
lfoot 14.3368 -3.49034
ltoes -16.742
388
root -15.8116 18.248 2.41226 527.589 -72.5774 -522.08
lowerback -0.209082 -5.87504 3.07611
upperback -8.61153 -8.05984 1.514
thorax -9.17054 -4.28566 0.56749
lowerneck -11.0335 -11.8582 -17.224
upperneck -8.74718 -14.1311 10.8122
head 1.0417 -6.81429 5.18474
rclavicle 1.65985e-014 -4.95968e-014
rhumerus 38.1597 -39.5261 -4.44864
rradius 112.598
rwrist 4.76523
rhand -30.5763 -9.99401
rfingers 7.12502
rthumb -3.87399 -39.9385
lclavicle 1.65985e-014 -4.95968e-014
lhumerus 55.4713 18.4473 36.3415
lradius 106.284
lwrist -14.331
lhand -35.7425 10.638
lfingers 7.12502
lthumb -8.86135 40.432
rfemur -17.6812 -1.00258 32.1637
rtibia 23.877
rfoot -7.27799 2.05278
rtoes 21.4494
lfemur 2.39939 4.80701 -11.3549
ltibia 41.5918
lfoot 15.8739 -3.6215
ltoes -13.5657
389
root -15.9146 18.2482 2.38413 527.108 -72.3961 -521.591
lowerback -0.0796962 -5.85445 3.29524
upperback -8.58603 -8.01301 1.54255
thorax -9.24574 -4.27533 0.491
lowerneck -11.04 -11.8703 -17.1927
upperneck -8.73048 -14.151 10.7781
head 1.04501 -6.82544 5.16715
rclavicle 1.17109e-013 3.07122e-014
rhumerus 37.9966 -39.5371 -4.31134
rradius 112.495
rwrist 4.87464
rhand -30.751 -10.1238
rfingers 7.12502
rthumb -4.04271 -40.0652
lclavicle 1.17109e-013 3.07122e-014
lhumerus 55.5831 18.4079 36.6801
lradius 106.343
lwrist -14.2493
lhand -35.5877 10.5634
lfingers 7.12502
lthumb -8.7119 40.3636
rfemur -17.2825 -1.18625 32.4095
rtibia 23.9144
rfoot -7.50401 2.26545
rtoes 21.5823
lfemur 1.73835 5.22336 -10.8542
ltibia 42.9031
lfoot 17.1743 -3.73142
ltoes -10.6464
390
root -16.0152 18.2485 2.35663 526.64 -72.2363 -521.11
lowerback 0.0472377 -5.83645 3.50908
upperback -8.55264 -7.96897 1.56741
thorax -9.31051 -4.26594 0.412463
lowerneck -11.0907 -11.8626 -17.1446
upperneck -8.66333 -14.139 10.7083
head 1.0616 -6.82055 5.13561
rclavicle -4.48259e-014 2.52457e-014
rhumerus 37.871 -39.5595 -4.20141
rradius 112.351
rwrist 5.01492
rhand -30.8696 -10.183
rfingers 7.12502
rthumb -4.15719 -40.1221
lclavicle -4.48259e-014 2.52457e-014
lhumerus 55.6888 18.3939 36.9465
lradius 106.304
lwrist -14.2
lhand -35.5012 10.5171
lfingers 7.12502
lthumb -8.62843 40.3208
rfemur -16.8848 -1.35317 32.6443
rtibia 23.9212
rfoot -7.72205 2.42401
rtoes 21.6558
lfemur 1.03515 5.6487 -10.3589
ltibia 44.2504
lfoot 18.1083 -3.82827
ltoes -8.30344
391
root -16.1139 18.2489 2.32956 526.204 -72.0972 -520.657
lowerback 0.176046 -5.82089 3.70993
upperback -8.51551 -7.92813 1.58768
thorax -9.37102 -4.2572 0.336022
lowerneck -11.1701 -11.8376 -17.0538
upperneck -8.56248 -14.1047 10.5728
head 1.08109 -6.80536 5.07817
rclavicle 9.24349e-015 3.49861e-014
rhumerus 37.7695 -39.5859 -4.10577
rradius 112.166
rwrist 5.1753
rhand -30.9359 -10.1781
rfingers 7.12502
rthumb -4.22126 -40.116
lclavicle 9.24349e-015 3.49861e-014
lhumerus 55.7845 18.4158 37.1306
lradius 106.158
lwrist -14.1863
lhand -35.4909 10.4846
lfingers 7.12502
lthumb -8.61849 40.2887
rfemur -16.4882 -1.49876 32.8619
rtibia 23.8995
rfoot -7.93683 2.53295
rtoes 21.6329
lfemur 0.295201 6.08263 -9.87995
ltibia 45.6277
lfoot 18.4892 -3.92034
ltoes -6.86905
